<svg width="43" height="44" viewBox="0 0 43 44" fill="none" xmlns="http://www.w3.org/2000/svg">
<path d="M35.286 20.2289H38.8144C38.8144 11.1785 31.9817 4.35284 22.9189 4.35284V7.88125C30.0851 7.88125 35.286 13.0733 35.286 20.2289Z" fill="url(#paint0_linear_2_3711)"/>
<path d="M22.9375 14.9381C26.6476 14.9381 28.2301 16.5206 28.2301 20.2307H31.7585C31.7585 14.5412 28.627 11.4097 22.9375 11.4097V14.9381ZM28.9746 24.5407C28.6356 24.2326 28.1901 24.0682 27.7322 24.0824C27.2743 24.0966 26.8399 24.2881 26.5206 24.6165L22.2988 28.9583C21.2826 28.7642 19.2397 28.1273 17.1368 26.0297C15.0338 23.925 14.3969 21.8767 14.2082 20.8676L18.5464 16.6441C18.8752 16.325 19.067 15.8905 19.0812 15.4325C19.0953 14.9745 18.9307 14.5289 18.6222 14.1901L12.1035 7.02215C11.7948 6.68228 11.3658 6.47613 10.9076 6.44747C10.4494 6.41882 9.99808 6.56991 9.64947 6.86866L5.82115 10.1518C5.51614 10.458 5.33409 10.8654 5.30953 11.2968C5.28307 11.7379 4.77851 22.1855 12.8797 30.2902C19.9471 37.3559 28.7999 37.8728 31.238 37.8728C31.5944 37.8728 31.8132 37.8622 31.8714 37.8587C32.3028 37.8345 32.7099 37.6516 33.0146 37.3453L36.296 33.5152C36.595 33.1668 36.7464 32.7156 36.718 32.2574C36.6897 31.7992 36.4839 31.3701 36.1443 31.0612L28.9746 24.5407Z" fill="url(#paint1_linear_2_3711)"/>
<defs>
<linearGradient id="paint0_linear_2_3711" x1="21.2071" y1="10.459" x2="38.8104" y2="16.1503" gradientUnits="userSpaceOnUse">
<stop stop-color="#0C5FD1"/>
<stop offset="1" stop-color="#8703C5"/>
</linearGradient>
<linearGradient id="paint1_linear_2_3711" x1="1.91053" y1="18.532" x2="36.7219" y2="29.7724" gradientUnits="userSpaceOnUse">
<stop stop-color="#0C5FD1"/>
<stop offset="1" stop-color="#8703C5"/>
</linearGradient>
</defs>
</svg>
